#!OML:ASF E:\inclinewalkrobotboard\Project 1\Capture day 1\Session 1\subject1.ASF
:FULLY-SPECIFIED
:DEGREES
209
root 7.92624 17.4281 19.1262 -169.106 2.47344 184.451
lowerback -3.84076 -1.47749 -11.2133
upperback 3.51812 -1.28086 1.99086
thorax 6.23427 -1.15175 8.34025
lowerneck -8.13391 -4.64118 -3.59085
upperneck 27.8964 -6.62933 11.1144
head 10.8003 -1.31399 4.03711
rclavicle 7.35503e-015 -1.82882e-014
rhumerus -61.7193 -36.0131 -45.298
rradius 18.4944
rwrist 29.8913
rhand -4.44396 -38.0125
rfingers 7.12502
rthumb 21.3276 -66.8589
lclavicle 7.35503e-015 -1.82882e-014
lhumerus -12.6518 -0.0747507 81.2307
lradius 15.6925
lwrist -30.8789
lhand -25.05 -20.1008
lfingers 7.12502
lthumb 1.4633 9.87396
rfemur -21.6691 8.18354 4.0819
rtibia 11.4225
rfoot -11.2855 -7.65606
rtoes -36.1575
lfemur -6.89585 -11.5091 -12.3822
ltibia 9.19704
lfoot -19.6044 8.58737
ltoes -65.9358
210
root 7.97393 17.4152 19.0204 -169.263 2.18365 184.116
lowerback -3.75816 -1.67117 -11.3054
upperback 3.47427 -1.55471 2.10582
thorax 6.21144 -1.29257 8.49246
lowerneck -8.0469 -4.76731 -3.60797
upperneck 28.1096 -6.79092 11.1458
head 10.8813 -1.36636 4.04501
rclavicle -6.75868e-015 3.18055e-014
rhumerus -63.8775 -37.3713 -42.4673
rradius 17.7614
rwrist 31.3759
rhand -3.79371 -38.3893
rfingers 7.12502
rthumb 21.952 -67.1637
lclavicle -6.75868e-015 3.18055e-014
lhumerus -12.2851 -1.22502 81.8747
lradius 16.1247
lwrist -29.7681
lhand -24.8503 -20.1202
lfingers 7.12502
lthumb 1.65618 9.85315
rfemur -22.2228 7.7338 3.58209
rtibia 11.5905
rfoot -10.8482 -7.5991
rtoes -36.299
lfemur -6.26095 -11.8129 -12.7357
ltibia 9.03131
lfoot -19.9098 8.50175
ltoes -65.9675
211
root 8.02208 17.4012 18.9101 -169.464 1.92015 183.783
lowerback -3.65681 -1.91406 -11.3661
upperback 3.50229 -1.89409 2.25842
thorax 6.27411 -1.47282 8.6613
lowerneck -8.0386 -4.79487 -3.52607
upperneck 28.2464 -6.7931 10.9358
head 10.9203 -1.37674 3.95747
rclavicle -1.64991e-014 -1.03368e-014
rhumerus -65.8442 -38.7193 -39.5665
rradius 16.949
rwrist 33.5121
rhand -3.50073 -38.9469
rfingers 7.12502
rthumb 22.2333 -67.688
lclavicle -1.64991e-014 -1.03368e-014
lhumerus -11.8883 -2.24575 82.5777
lradius 16.4726
lwrist -28.5413
lhand -24.9215 -20.1903
lfingers 7.12502
lthumb 1.58737 9.78353
rfemur -22.6084 7.27348 3.14163
rtibia 11.6252
rfoot -10.2367 -7.05517
rtoes -32.5679
lfemur -5.478 -12.4007 -13.1785
ltibia 8.79258
lfoot -20.2902 8.73434
ltoes -66.0384
212
root 8.07479 17.3854 18.7984 -169.604 1.66629 183.523
lowerback -3.64072 -2.17763 -11.3756
upperback 3.56436 -2.25536 2.47071
thorax 6.43155 -1.67062 8.86182
lowerneck -8.07148 -4.7989 -3.50536
upperneck 28.2952 -6.7666 10.7324
head 10.9337 -1.39001 3.88108
rclavicle -9.93923e-015 -4.77083e-015
rhumerus -67.6616 -39.9633 -36.7709
rradius 16.2896
rwrist 35.7381
rhand -3.58834 -39.2774
rfingers 7.12502
rthumb 22.1492 -68.0286
lclavicle -9.93923e-015 -4.77083e-015
lhumerus -11.5592 -3.38514 83.3323
lradius 16.9319
lwrist -27.29
lhand -24.9279 -20.1245
lfingers 7.12502
lthumb 1.58125 9.84936
rfemur -22.8982 7.16776 2.79978
rtibia 11.3849
rfoot -9.3903 -6.98389
rtoes -29.996
lfemur -4.75259 -12.7278 -13.4637
ltibia 8.5517
lfoot -20.4759 8.9565
ltoes -66.3125
213
root 8.1331 17.3658 18.6827 -169.673 1.39524 183.307
lowerback -3.66024 -2.41713 -11.2896
upperback 3.57756 -2.59177 2.70071
thorax 6.54783 -1.84835 9.02797
lowerneck -8.15254 -4.84265 -3.48908
upperneck 28.4572 -6.78117 10.4909
head 11.0026 -1.41674 3.7913
rclavicle 1.66979e-014 1.43125e-014
rhumerus -69.5171 -41.0189 -34.1122
rradius 15.85
rwrist 37.8669
rhand -3.11702 -39.0946
rfingers 7.12502
rthumb 22.6017 -67.7914
lclavicle 1.66979e-014 1.43125e-014
lhumerus -11.5489 -5.0487 84.0933
lradius 17.758
lwrist -25.9048
lhand -24.8558 -19.8684
lfingers 7.12502
lthumb 1.65084 10.1049
rfemur -23.1181 7.24307 2.52312
rtibia 10.9964
rfoot -8.76077 -7.36477
rtoes -29.1119
lfemur -4.10913 -12.8544 -13.6163
ltibia 8.34792
lfoot -20.6728 8.98904
ltoes -66.5279
214
root 8.19727 17.3405 18.5588 -169.685 1.06075 182.886
lowerback -3.79806 -2.6609 -11.3071
upperback 3.58756 -2.91093 2.85966
thorax 6.72972 -2.0242 9.17282
lowerneck -8.21686 -4.88031 -3.54126
upperneck 28.6216 -6.79038 10.3483
head 11.0756 -1.43425 3.75211
rclavicle -2.38542e-014 7.95139e-015
rhumerus -71.4402 -42.0401 -31.443
rradius 15.4789
rwrist 39.9364
rhand -2.67267 -38.6452
rfingers 7.12502
rthumb 23.0281 -67.2894
lclavicle -2.38542e-014 7.95139e-015
lhumerus -11.5928 -7.0651 84.8537
lradius 18.5784
lwrist -24.5292
lhand -26.8396 -22.7755
lfingers 7.12502
lthumb -0.265136 7.20406
rfemur -23.3049 7.06016 2.04846
rtibia 10.6382
rfoot -8.5384 -7.70011
rtoes -27.8118
lfemur -3.55557 -12.8979 -13.9506
ltibia 8.18457
lfoot -20.9686 8.72533
ltoes -66.6467
